<?xml version="1.0" encoding="UTF-8"?>
<svg id="Capa_1" data-name="Capa 1" xmlns="http://www.w3.org/2000/svg" viewBox="0 0 1192.82 172.68">
  <path d="m85.97,172.44H0v-96.78l35.13-31.93H0V.74h85.97l42.74,41.51v88.67l-42.74,41.51Zm0-42.99V43.72h-42.99v85.73h42.99Z"/>
  <path d="m136.33,172.68v-63.13l21.37-27.02-21.37-17.69V1.23h126.75v42.74h-84.01v22.35h69.27v43.23h-69.27v20.63h84.01v42.5h-126.75Z"/>
  <path d="m313.68,129.94h43.72V.49h42.5v86.96l-73.45,84.99h-55.76V.49h42.99v129.45Z"/>
  <path d="m407.27,172.68v-63.13l21.37-27.02-21.37-17.69V1.23h126.75v42.74h-84.01v22.35h69.27v43.23h-69.27v20.63h84.01v42.5h-126.75Z"/>
  <path d="m585.11,129.94h64.85v42.74h-108.08V0h43.23v129.94Z"/>
  <path d="m786.04,172.68h-129.2V.49h43.23v37.34L733.97.49h52.07v172.19Zm-43.23-42.74V43.72h-42.74v86.22h42.74Z"/>
  <path d="m923.11,138.78h-54.04l-32.18-34.88v68.78h-42.99V.49h129.2v138.29Zm-43.23-42.99v-52.32h-42.99v52.32h42.99Z"/>
  <path d="m930.48,172.68v-63.13l21.37-27.02-21.37-17.69V1.23h126.75v42.74h-84.01v22.35h69.27v43.23h-69.27v20.63h84.01v42.5h-126.75Z"/>
  <path d="m1171.2,113.24l20.88,25.55v33.65h-42.25v-21.62l-42-51.34v72.95h-42.99l.25-171.95h127.73v95.31l-21.62,17.44Zm-21.37-17.44v-52.32h-42v52.32h42Z"/>
</svg>