<?xml version="1.0" encoding="UTF-8"?>
<svg id="Capa_1" data-name="Capa 1" xmlns="http://www.w3.org/2000/svg" viewBox="0 0 1200 117">
  <path d="m95.37,8.58c11.23,4.69,19.09,11.18,23.57,19.47,4.48,8.3,6.72,18.47,6.72,30.53s-2.57,21.43-7.72,29.99c-5.16,8.55-12.88,15.17-23.18,19.86s-22.98,7.03-38.02,7.03h-27.97c-9.48,0-19.07-.05-28.75-.16.83-20.29,1.25-39.2,1.25-56.72S.83,22.36,0,3.09c12.26-1.03,28.75-1.55,49.46-1.55,19.37,0,34.68,2.35,45.91,7.04Zm-34.31,76.12c9.58,0,15.97-2.31,19.17-6.96,3.19-4.64,4.79-11.02,4.79-19.16s-1.69-14.17-5.03-19.01-9.66-7.26-18.93-7.26c-10,0-17.47.31-22.41.93v51.46h22.41Z"/>
  <path d="m174.5,87.17c39.16-.21,67.54-.77,85.17-1.7-.72,4.23-1.16,8.58-1.32,13.06-.15,4.48-.23,10.13-.23,16.92h-120.1c.83-19.99,1.25-38.69,1.25-56.1s-.42-36.11-1.25-56.1h120.1v27.97h-83.62v14.84c4.94.11,12.26.16,21.95.16,16.39,0,33.33-.31,50.85-.93v26.59c-17.52-.62-34.46-.93-50.85-.93-9.69,0-17.01.06-21.95.16v16.07Z"/>
  <path d="m395.68,3.25l-10.2,23.65c-8.97,20.92-16.02,37.66-21.18,50.23-5.16,12.57-9.89,25.35-14.21,38.33h-46.22c-4.23-12.77-8.88-25.43-13.99-37.94-5.09-12.52-11.92-28.57-20.48-48.15-1.45-3.3-5.19-12-11.28-26.12h42.97c3.09,9.99,7.67,22.82,13.76,38.48,5.36,13.81,9.69,25.76,12.98,35.86,2.16-7.11,4.77-14.71,7.81-22.8,3.03-8.09,4.87-13.01,5.48-14.76,5.97-15.77,10.35-28.02,13.13-36.78h41.43Z"/>
  <path d="m440.35,87.17c39.16-.21,67.54-.77,85.15-1.7-.72,4.23-1.16,8.58-1.31,13.06s-.23,10.13-.23,16.92h-120.1c.82-19.99,1.23-38.69,1.23-56.1s-.42-36.11-1.23-56.1h120.1v27.97h-83.62v14.84c4.94.11,12.26.16,21.95.16,16.38,0,33.33-.31,50.84-.93v26.59c-17.51-.62-34.46-.93-50.84-.93-9.69,0-17.01.06-21.95.16v16.07Z"/>
  <path d="m575.59,84.24c29.87-.21,54.6-.72,74.19-1.55-1.35,5.25-2.16,10.3-2.48,15.14-.3,4.85-.47,10.72-.47,17.62h-108.96c.83-19.99,1.25-38.69,1.25-56.1s-.42-36.11-1.25-56.1h37.72v80.99Z"/>
  <path d="m671.09,101.62c-11.12-10.25-16.69-24.65-16.69-43.2s5.55-32.66,16.62-42.97c11.08-10.3,28.46-15.45,52.16-15.45s41.24,5.15,52.32,15.45c11.07,10.31,16.62,24.63,16.62,42.97s-5.51,33.08-16.54,43.28c-11.03,10.2-28.49,15.3-52.4,15.3s-40.95-5.13-52.09-15.38Zm76.83-22.72c5.04-4.38,7.57-11.21,7.57-20.48s-2.53-15.81-7.57-20.24c-5.06-4.43-13.3-6.65-24.74-6.65s-19.52,2.22-24.57,6.65c-5.06,4.43-7.57,11.18-7.57,20.24s2.52,15.97,7.57,20.4c5.04,4.43,13.23,6.65,24.57,6.65s19.68-2.19,24.74-6.57Z"/>
  <path d="m874.66,3.4c20.5,0,34.77,3.64,42.8,10.9s12.06,17.49,12.06,30.68c0,9.07-1.6,16.77-4.79,23.11-3.19,6.34-8.82,11.29-16.85,14.84s-19.11,5.33-33.22,5.33h-32.15v27.2h-38.02c.82-19.99,1.23-38.69,1.23-56.1s-.42-36.11-1.23-56.1h38.02v.15h32.15Zm-10.83,55.02c8.55,0,14.97-.33,19.24-1,4.28-.67,7.27-1.88,8.97-3.64,1.7-1.75,2.55-4.33,2.55-7.73s-.8-5.95-2.4-7.65-4.53-2.86-8.8-3.48-10.79-.93-19.56-.93h-21.32v24.42h21.32Z"/>
  <path d="m978.36,87.17c39.16-.21,67.54-.77,85.15-1.7-.72,4.23-1.16,8.58-1.31,13.06s-.23,10.13-.23,16.92h-120.1c.82-19.99,1.23-38.69,1.23-56.1s-.42-36.11-1.23-56.1h120.1v27.97h-83.62v14.84c4.94.11,12.26.16,21.95.16,16.38,0,33.33-.31,50.84-.93v26.59c-17.51-.62-34.46-.93-50.84-.93-9.69,0-17.01.06-21.95.16v16.07Z"/>
  <path d="m1193.42,63.37c-4.38,6.18-11.87,10.67-22.49,13.45,1.25,1.65,2.11,2.94,2.63,3.86l25.04,34.78h-42.04c-4.54-8.45-11.7-20.4-21.48-35.86h-22.73v35.86h-36.48c.83-19.99,1.25-38.69,1.25-56.1s-.42-36.11-1.25-56.1h36.48v.15h31.68c20.82,0,35.34,3.35,43.58,10.05,8.25,6.7,12.38,15.77,12.38,27.2,0,8.97-2.2,16.54-6.58,22.72Zm-81.07-30.29v17.62h20.87c8.75,0,15.38-.28,19.86-.86,4.48-.56,7.6-1.47,9.36-2.7,1.75-1.23,2.62-3.04,2.62-5.41s-.82-4.02-2.47-5.25c-1.65-1.24-4.74-2.11-9.27-2.63-4.54-.52-11.23-.77-20.1-.77h-20.87Z"/>
</svg>